<svg xmlns="http://www.w3.org/2000/svg" width="400" height="400" viewBox="0 0 200 200"><rect width="200" height="200" fill="#1c1a17"></rect><g class="a" opacity="0.15"><g style="mix-blend-mode:screen"><path d="M64 18 V182 M64 30 L126 62 L64 94 M64 94 L132 130 L64 170" fill="none" stroke="#a89f8f" stroke-width="14" stroke-linecap="square"></path></g></g><g class="b" opacity="0.3"><g style="mix-blend-mode:screen"><path d="M64 18 V182 M64 30 L126 62 L64 94 M64 94 L132 130 L64 170" fill="none" stroke="#2f6644" stroke-width="14" stroke-linecap="square"></path></g></g><g class="c" opacity="0.5"><g style="mix-blend-mode:screen"><path d="M64 18 V182 M64 30 L126 62 L64 94 M64 94 L132 130 L64 170" fill="none" stroke="#a89f8f" stroke-width="14" stroke-linecap="square"></path></g></g><g class="d"><g style="mix-blend-mode:screen"><path d="M64 18 V182 M64 30 L126 62 L64 94 M64 94 L132 130 L64 170" fill="none" stroke="#2f6644" stroke-width="14" stroke-linecap="square"></path></g></g></svg>